<?xml version="1.0" encoding="UTF-8" standalone="no"?>
<!-- Created with Inkscape (http://www.inkscape.org/) -->

<svg
   xmlns:dc="http://purl.org/dc/elements/1.1/"
   xmlns:cc="http://creativecommons.org/ns#"
   xmlns:rdf="http://www.w3.org/1999/02/22-rdf-syntax-ns#"
   xmlns:svg="http://www.w3.org/2000/svg"
   xmlns="http://www.w3.org/2000/svg"
   xmlns:sodipodi="http://sodipodi.sourceforge.net/DTD/sodipodi-0.dtd"
   xmlns:inkscape="http://www.inkscape.org/namespaces/inkscape"
   width="512"
   height="512"
   viewBox="0 0 512.00001 512.00001"
   id="svg2"
   version="1.1"
   inkscape:version="0.91 r13725"
   sodipodi:docname="poisson_generator_excitatory.svg"
   inkscape:export-filename="/home/milad/Dropbox/software/apps/neuronify/neuronify/images/generators/poisson_generator_excitatory.png"
   inkscape:export-xdpi="21.43"
   inkscape:export-ydpi="21.43">
  <defs
     id="defs4">
    <inkscape:path-effect
       effect="spiro"
       id="path-effect4713"
       is_visible="true" />
    <inkscape:path-effect
       effect="spiro"
       id="path-effect4709"
       is_visible="true" />
    <filter
       style="color-interpolation-filters:sRGB;"
       inkscape:label="Invert"
       id="filter4139">
      <feColorMatrix
         values="1 0 0 0 0 0 1 0 0 0 0 0 1 0 0 -0.21 -0.72 -0.07 2 0 "
         result="fbSourceGraphic"
         id="feColorMatrix4141" />
      <feColorMatrix
         result="fbSourceGraphicAlpha"
         in="fbSourceGraphic"
         values="0 0 0 -1 0 0 0 0 -1 0 0 0 0 -1 0 0 0 0 1 0"
         id="feColorMatrix4143" />
      <feColorMatrix
         id="feColorMatrix4145"
         values="1 0 0 0 0 0 1 0 0 0 0 0 1 0 0 -0.21 -0.72 -0.07 2 0 "
         result="fbSourceGraphic"
         in="fbSourceGraphic" />
      <feColorMatrix
         result="fbSourceGraphicAlpha"
         in="fbSourceGraphic"
         values="0 0 0 -1 0 0 0 0 -1 0 0 0 0 -1 0 0 0 0 1 0"
         id="feColorMatrix4155" />
      <feColorMatrix
         id="feColorMatrix4157"
         values="0 1 0 0 0 1 0 0 0 0 0 0 1 0 0 -0.21 -0.72 -0.07 2 0 "
         result="fbSourceGraphic"
         in="fbSourceGraphic" />
      <feColorMatrix
         result="fbSourceGraphicAlpha"
         in="fbSourceGraphic"
         values="0 0 0 -1 0 0 0 0 -1 0 0 0 0 -1 0 0 0 0 1 0"
         id="feColorMatrix4159" />
      <feColorMatrix
         id="feColorMatrix4161"
         values="0 1 0 0 0 1 0 0 0 0 0 0 1 0 0 -0.21 -0.72 -0.07 2 0 "
         result="fbSourceGraphic"
         in="fbSourceGraphic" />
      <feColorMatrix
         result="fbSourceGraphicAlpha"
         in="fbSourceGraphic"
         values="0 0 0 -1 0 0 0 0 -1 0 0 0 0 -1 0 0 0 0 1 0"
         id="feColorMatrix4163" />
      <feColorMatrix
         id="feColorMatrix4165"
         values="0 1 0 0 0 1 0 0 0 0 0 0 1 0 0 -0.21 -0.72 -0.07 2 0 "
         result="color2"
         in="fbSourceGraphic" />
    </filter>
  </defs>
  <sodipodi:namedview
     id="base"
     pagecolor="#ffffff"
     bordercolor="#666666"
     borderopacity="1.0"
     inkscape:pageopacity="0.0"
     inkscape:pageshadow="2"
     inkscape:zoom="1.4"
     inkscape:cx="403.10555"
     inkscape:cy="307.24802"
     inkscape:document-units="px"
     inkscape:current-layer="g2399"
     showgrid="false"
     units="px"
     inkscape:window-width="3119"
     inkscape:window-height="1770"
     inkscape:window-x="81"
     inkscape:window-y="30"
     inkscape:window-maximized="1"
     inkscape:object-nodes="true"
     inkscape:snap-midpoints="true"
     inkscape:snap-object-midpoints="true"
     inkscape:snap-center="true"
     showguides="false">
    <inkscape:grid
       type="xygrid"
       id="grid4136" />
  </sodipodi:namedview>
  <metadata
     id="metadata7">
    <rdf:RDF>
      <cc:Work
         rdf:about="">
        <dc:format>image/svg+xml</dc:format>
        <dc:type
           rdf:resource="http://purl.org/dc/dcmitype/StillImage" />
        <dc:title />
      </cc:Work>
    </rdf:RDF>
  </metadata>
  <g
     inkscape:label="Layer 1"
     inkscape:groupmode="layer"
     id="layer1"
     transform="translate(0,-540.36216)">
    <rect
       style="fill:#6baed6;fill-opacity:1;stroke:#2171b5;stroke-width:16;stroke-linecap:round;stroke-miterlimit:4;stroke-dasharray:none;stroke-dashoffset:0;stroke-opacity:1"
       id="rect4705-6"
       width="448"
       height="447.99997"
       x="31.999996"
       y="572.36218"
       ry="169.38075" />
    <g
       transform="matrix(1.58256,0,0,1.58256,-149.24088,-464.41283)"
       id="g4291">
      <g
         transform="matrix(0.60923494,0,0,0.60923494,30.591199,407.08242)"
         id="g2399">
        <path
           inkscape:connector-curvature="0"
           id="path2434"
           style="fill:#2171b5;fill-opacity:1;fill-rule:evenodd;stroke:#6baed6;stroke-width:4.92420864;stroke-miterlimit:4;stroke-dasharray:none;stroke-opacity:1"
           d="M 381.23003,455.42541 544.63991,515.50003 343.265,595.24858 195.25484,512.13723 381.23003,455.42541 Z" />
        <path
           inkscape:connector-curvature="0"
           id="path2420"
           style="fill:#2171b5;fill-opacity:1;fill-rule:evenodd;stroke:#6baed6;stroke-width:4.92420864;stroke-miterlimit:4;stroke-dasharray:none;stroke-opacity:1"
           d="m 195.60055,512.37294 149.77013,83.33135 11.80121,226.80016 -139.4146,-110.7837 -22.15674,-199.34781 z" />
        <path
           inkscape:connector-curvature="0"
           id="path2404"
           style="fill:#2171b5;fill-opacity:1;fill-rule:evenodd;stroke:#6baed6;stroke-width:4.92420864;stroke-miterlimit:4;stroke-dasharray:none;stroke-opacity:1"
           d="M 544.71848,515.54717 343.265,594.63573 356.96761,822.45731 532.053,724.37052 544.71848,515.54717 Z" />
        <g
           id="g4273"
           style="fill:#6baed6;fill-opacity:1"
           transform="matrix(1.5714,0,0,1.5714,-167.22,-504.26)">
          <path
             transform="matrix(0.2924,-0.58759,0.88664,0.12128,-350.79,774.28)"
             d="m 377.21,723.81 c 0,11.68 -6.01,21.15 -13.42,21.15 -7.42,0 -13.43,-9.47 -13.43,-21.15 0,-11.68 6.01,-21.15 13.43,-21.15 7.41,0 13.42,9.47 13.42,21.15 z"
             style="fill:#6baed6;fill-opacity:1"
             id="path2426"
             inkscape:connector-curvature="0" />
          <g
             style="fill:#6baed6;fill-opacity:1"
             id="g4257">
            <path
               inkscape:connector-curvature="0"
               id="path2396"
               style="fill:#6baed6;fill-opacity:1"
               d="m 377.21,723.81 c 0,11.68 -6.01,21.15 -13.42,21.15 -7.42,0 -13.43,-9.47 -13.43,-21.15 0,-11.68 6.01,-21.15 13.43,-21.15 7.41,0 13.42,9.47 13.42,21.15 z"
               transform="matrix(0.90106,0.4337,-0.4337,0.90106,348.57,-86.829)" />
            <path
               inkscape:connector-curvature="0"
               id="path2398"
               style="fill:#6baed6;fill-opacity:1"
               d="m 377.21,723.81 c 0,11.68 -6.01,21.15 -13.42,21.15 -7.42,0 -13.43,-9.47 -13.43,-21.15 0,-11.68 6.01,-21.15 13.43,-21.15 7.41,0 13.42,9.47 13.42,21.15 z"
               transform="matrix(0.90106,0.4337,-0.4337,0.90106,408.97,-112)" />
            <path
               inkscape:connector-curvature="0"
               id="path2400"
               style="fill:#6baed6;fill-opacity:1"
               d="m 377.21,723.81 c 0,11.68 -6.01,21.15 -13.42,21.15 -7.42,0 -13.43,-9.47 -13.43,-21.15 0,-11.68 6.01,-21.15 13.43,-21.15 7.41,0 13.42,9.47 13.42,21.15 z"
               transform="matrix(0.90106,0.4337,-0.4337,0.90106,407.63,-42.866)" />
            <path
               inkscape:connector-curvature="0"
               id="path2402"
               style="fill:#6baed6;fill-opacity:1"
               d="m 377.21,723.81 c 0,11.68 -6.01,21.15 -13.42,21.15 -7.42,0 -13.43,-9.47 -13.43,-21.15 0,-11.68 6.01,-21.15 13.43,-21.15 7.41,0 13.42,9.47 13.42,21.15 z"
               transform="matrix(0.90106,0.4337,-0.4337,0.90106,349.24,-15.347)" />
            <path
               inkscape:connector-curvature="0"
               id="path2408"
               style="fill:#6baed6;fill-opacity:1"
               d="m 377.21,723.81 c 0,11.68 -6.01,21.15 -13.42,21.15 -7.42,0 -13.43,-9.47 -13.43,-21.15 0,-11.68 6.01,-21.15 13.43,-21.15 7.41,0 13.42,9.47 13.42,21.15 z"
               transform="matrix(-0.64716,0.51168,0.43938,0.85613,217.29,-91.126)" />
            <path
               inkscape:connector-curvature="0"
               id="path2410"
               style="fill:#6baed6;fill-opacity:1"
               d="m 377.21,723.81 c 0,11.68 -6.01,21.15 -13.42,21.15 -7.42,0 -13.43,-9.47 -13.43,-21.15 0,-11.68 6.01,-21.15 13.43,-21.15 7.41,0 13.42,9.47 13.42,21.15 z"
               transform="matrix(-0.64716,0.51168,0.43938,0.85613,220.11,-47.455)" />
            <path
               inkscape:connector-curvature="0"
               id="path2412"
               style="fill:#6baed6;fill-opacity:1"
               d="m 377.21,723.81 c 0,11.68 -6.01,21.15 -13.42,21.15 -7.42,0 -13.43,-9.47 -13.43,-21.15 0,-11.68 6.01,-21.15 13.43,-21.15 7.41,0 13.42,9.47 13.42,21.15 z"
               transform="matrix(-0.64716,0.51168,0.43938,0.85613,222.79,-5.8276)" />
            <path
               inkscape:connector-curvature="0"
               id="path2414"
               style="fill:#6baed6;fill-opacity:1"
               d="m 377.21,723.81 c 0,11.68 -6.01,21.15 -13.42,21.15 -7.42,0 -13.43,-9.47 -13.43,-21.15 0,-11.68 6.01,-21.15 13.43,-21.15 7.41,0 13.42,9.47 13.42,21.15 z"
               transform="matrix(-0.59593,0.48508,0.4046,0.81162,176.71,-76.72)" />
            <path
               inkscape:connector-curvature="0"
               id="path2416"
               style="fill:#6baed6;fill-opacity:1"
               d="m 377.21,723.81 c 0,11.68 -6.01,21.15 -13.42,21.15 -7.42,0 -13.43,-9.47 -13.43,-21.15 0,-11.68 6.01,-21.15 13.43,-21.15 7.41,0 13.42,9.47 13.42,21.15 z"
               transform="matrix(-0.54469,0.49395,0.36981,0.82646,188.42,-50.021)" />
            <path
               inkscape:connector-curvature="0"
               id="path2418"
               style="fill:#6baed6;fill-opacity:1"
               d="m 377.21,723.81 c 0,11.68 -6.01,21.15 -13.42,21.15 -7.42,0 -13.43,-9.47 -13.43,-21.15 0,-11.68 6.01,-21.15 13.43,-21.15 7.41,0 13.42,9.47 13.42,21.15 z"
               transform="matrix(-0.51054,0.423,0.34662,0.70776,197.46,99.989)" />
            <path
               inkscape:connector-curvature="0"
               id="path2422"
               style="fill:#6baed6;fill-opacity:1"
               d="m 377.21,723.81 c 0,11.68 -6.01,21.15 -13.42,21.15 -7.42,0 -13.43,-9.47 -13.43,-21.15 0,-11.68 6.01,-21.15 13.43,-21.15 7.41,0 13.42,9.47 13.42,21.15 z"
               transform="matrix(0.27703,0.61136,0.84004,-0.12619,-423.56,515.22)" />
            <path
               inkscape:connector-curvature="0"
               id="path2424"
               style="fill:#6baed6;fill-opacity:1"
               d="m 377.21,723.81 c 0,11.68 -6.01,21.15 -13.42,21.15 -7.42,0 -13.43,-9.47 -13.43,-21.15 0,-11.68 6.01,-21.15 13.43,-21.15 7.41,0 13.42,9.47 13.42,21.15 z"
               transform="matrix(0.26167,0.54005,0.79344,-0.11147,-324.84,512.72)" />
            <path
               inkscape:connector-curvature="0"
               id="path2428"
               style="fill:#6baed6;fill-opacity:1"
               d="m 377.21,723.81 c 0,11.68 -6.01,21.15 -13.42,21.15 -7.42,0 -13.43,-9.47 -13.43,-21.15 0,-11.68 6.01,-21.15 13.43,-21.15 7.41,0 13.42,9.47 13.42,21.15 z"
               transform="matrix(0.32314,0.58759,0.97984,-0.12128,-488.1,523.02)" />
            <path
               inkscape:connector-curvature="0"
               id="path2430"
               style="fill:#6baed6;fill-opacity:1"
               d="m 377.21,723.81 c 0,11.68 -6.01,21.15 -13.42,21.15 -7.42,0 -13.43,-9.47 -13.43,-21.15 0,-11.68 6.01,-21.15 13.43,-21.15 7.41,0 13.42,9.47 13.42,21.15 z"
               transform="matrix(0.33338,0.63513,1.0109,-0.13109,-518.73,535.54)" />
          </g>
        </g>
      </g>
    </g>
  </g>
</svg>
