<?xml version="1.0" encoding="UTF-8" standalone="no"?>
<!-- Created with Inkscape (http://www.inkscape.org/) -->

<svg
   xmlns:dc="http://purl.org/dc/elements/1.1/"
   xmlns:cc="http://creativecommons.org/ns#"
   xmlns:rdf="http://www.w3.org/1999/02/22-rdf-syntax-ns#"
   xmlns:svg="http://www.w3.org/2000/svg"
   xmlns="http://www.w3.org/2000/svg"
   xmlns:sodipodi="http://sodipodi.sourceforge.net/DTD/sodipodi-0.dtd"
   xmlns:inkscape="http://www.inkscape.org/namespaces/inkscape"
   width="512"
   height="512"
   viewBox="0 0 512.00001 512.00001"
   id="svg2"
   version="1.1"
   inkscape:version="0.91 r13725"
   sodipodi:docname="poisson_generator_inhibitory.svg"
   inkscape:export-filename="/home/milad/Dropbox/software/apps/neuronify/neuronify/images/generators/poisson_generator_inhibitory.png"
   inkscape:export-xdpi="21.43"
   inkscape:export-ydpi="21.43">
  <defs
     id="defs4">
    <inkscape:path-effect
       effect="spiro"
       id="path-effect4713"
       is_visible="true" />
    <inkscape:path-effect
       effect="spiro"
       id="path-effect4709"
       is_visible="true" />
    <filter
       style="color-interpolation-filters:sRGB;"
       inkscape:label="Invert"
       id="filter4139">
      <feColorMatrix
         values="1 0 0 0 0 0 1 0 0 0 0 0 1 0 0 -0.21 -0.72 -0.07 2 0 "
         result="fbSourceGraphic"
         id="feColorMatrix4141" />
      <feColorMatrix
         result="fbSourceGraphicAlpha"
         in="fbSourceGraphic"
         values="0 0 0 -1 0 0 0 0 -1 0 0 0 0 -1 0 0 0 0 1 0"
         id="feColorMatrix4143" />
      <feColorMatrix
         id="feColorMatrix4145"
         values="1 0 0 0 0 0 1 0 0 0 0 0 1 0 0 -0.21 -0.72 -0.07 2 0 "
         result="fbSourceGraphic"
         in="fbSourceGraphic" />
      <feColorMatrix
         result="fbSourceGraphicAlpha"
         in="fbSourceGraphic"
         values="0 0 0 -1 0 0 0 0 -1 0 0 0 0 -1 0 0 0 0 1 0"
         id="feColorMatrix4155" />
      <feColorMatrix
         id="feColorMatrix4157"
         values="0 1 0 0 0 1 0 0 0 0 0 0 1 0 0 -0.21 -0.72 -0.07 2 0 "
         result="fbSourceGraphic"
         in="fbSourceGraphic" />
      <feColorMatrix
         result="fbSourceGraphicAlpha"
         in="fbSourceGraphic"
         values="0 0 0 -1 0 0 0 0 -1 0 0 0 0 -1 0 0 0 0 1 0"
         id="feColorMatrix4159" />
      <feColorMatrix
         id="feColorMatrix4161"
         values="0 1 0 0 0 1 0 0 0 0 0 0 1 0 0 -0.21 -0.72 -0.07 2 0 "
         result="fbSourceGraphic"
         in="fbSourceGraphic" />
      <feColorMatrix
         result="fbSourceGraphicAlpha"
         in="fbSourceGraphic"
         values="0 0 0 -1 0 0 0 0 -1 0 0 0 0 -1 0 0 0 0 1 0"
         id="feColorMatrix4163" />
      <feColorMatrix
         id="feColorMatrix4165"
         values="0 1 0 0 0 1 0 0 0 0 0 0 1 0 0 -0.21 -0.72 -0.07 2 0 "
         result="color2"
         in="fbSourceGraphic" />
    </filter>
  </defs>
  <sodipodi:namedview
     id="base"
     pagecolor="#ffffff"
     bordercolor="#666666"
     borderopacity="1.0"
     inkscape:pageopacity="0.0"
     inkscape:pageshadow="2"
     inkscape:zoom="0.7"
     inkscape:cx="733.4784"
     inkscape:cy="-114.35027"
     inkscape:document-units="px"
     inkscape:current-layer="g3206"
     showgrid="false"
     units="px"
     inkscape:window-width="3119"
     inkscape:window-height="1770"
     inkscape:window-x="81"
     inkscape:window-y="30"
     inkscape:window-maximized="1"
     inkscape:object-nodes="true"
     inkscape:snap-midpoints="true"
     inkscape:snap-object-midpoints="true"
     inkscape:snap-center="true"
     showguides="false">
    <inkscape:grid
       type="xygrid"
       id="grid4136" />
  </sodipodi:namedview>
  <metadata
     id="metadata7">
    <rdf:RDF>
      <cc:Work
         rdf:about="">
        <dc:format>image/svg+xml</dc:format>
        <dc:type
           rdf:resource="http://purl.org/dc/dcmitype/StillImage" />
        <dc:title />
      </cc:Work>
    </rdf:RDF>
  </metadata>
  <g
     inkscape:label="Layer 1"
     inkscape:groupmode="layer"
     id="layer1"
     transform="translate(0,-540.36216)">
    <rect
       style="fill:#e41a1c;fill-opacity:1;stroke:#b61819;stroke-width:16;stroke-linecap:round;stroke-miterlimit:4;stroke-dasharray:none;stroke-dashoffset:0;stroke-opacity:1"
       id="rect4705-6"
       width="448"
       height="447.99997"
       x="31.999996"
       y="572.36218"
       ry="169.38075" />
    <g
       transform="matrix(1.58256,0,0,1.58256,-149.24088,-464.41283)"
       id="g4291">
      <g
         transform="matrix(0.60923494,0,0,0.60923494,30.591199,407.08242)"
         id="g2399">
        <g
           transform="matrix(1.5714,0,0,1.5714,-167.22,-504.26)"
           id="g3206">
          <path
             d="M 349.02,610.72 453.01,648.95 324.86,699.7 230.67,646.81 349.02,610.72 Z"
             style="fill:#8b1213;fill-opacity:1;fill-rule:evenodd;stroke:#e41a1c;stroke-width:3.13364434;stroke-miterlimit:4;stroke-dasharray:none;stroke-opacity:1"
             id="path2434"
             inkscape:connector-curvature="0" />
          <path
             d="m 230.89,646.96 95.31,53.03 7.51,144.33 -88.72,-70.5 -14.1,-126.86 z"
             style="fill:#8b1213;fill-opacity:1;fill-rule:evenodd;stroke:#e41a1c;stroke-width:3.13364434;stroke-miterlimit:4;stroke-dasharray:none;stroke-opacity:1"
             id="path2420"
             inkscape:connector-curvature="0" />
          <path
             d="m 453.06,648.98 -128.2,50.33 8.72,144.98 111.42,-62.42 8.06,-132.89 z"
             style="fill:#8b1213;fill-opacity:1;fill-rule:evenodd;stroke:#e41a1c;stroke-width:3.13364434;stroke-miterlimit:4;stroke-dasharray:none;stroke-opacity:1"
             id="path2404"
             inkscape:connector-curvature="0" />
          <g
             style="fill:#dd5900;fill-opacity:1"
             id="g4273">
            <path
               inkscape:connector-curvature="0"
               id="path2426"
               style="fill:#e41a1c;fill-opacity:1"
               d="m 377.21,723.81 c 0,11.68 -6.01,21.15 -13.42,21.15 -7.42,0 -13.43,-9.47 -13.43,-21.15 0,-11.68 6.01,-21.15 13.43,-21.15 7.41,0 13.42,9.47 13.42,21.15 z"
               transform="matrix(0.2924,-0.58759,0.88664,0.12128,-350.79,774.28)" />
            <g
               id="g4257"
               style="fill:#e41a1c;fill-opacity:1">
              <path
                 transform="matrix(0.90106,0.4337,-0.4337,0.90106,348.57,-86.829)"
                 d="m 377.21,723.81 c 0,11.68 -6.01,21.15 -13.42,21.15 -7.42,0 -13.43,-9.47 -13.43,-21.15 0,-11.68 6.01,-21.15 13.43,-21.15 7.41,0 13.42,9.47 13.42,21.15 z"
                 style="fill:#e41a1c;fill-opacity:1"
                 id="path2396"
                 inkscape:connector-curvature="0" />
              <path
                 transform="matrix(0.90106,0.4337,-0.4337,0.90106,408.97,-112)"
                 d="m 377.21,723.81 c 0,11.68 -6.01,21.15 -13.42,21.15 -7.42,0 -13.43,-9.47 -13.43,-21.15 0,-11.68 6.01,-21.15 13.43,-21.15 7.41,0 13.42,9.47 13.42,21.15 z"
                 style="fill:#e41a1c;fill-opacity:1"
                 id="path2398"
                 inkscape:connector-curvature="0" />
              <path
                 transform="matrix(0.90106,0.4337,-0.4337,0.90106,407.63,-42.866)"
                 d="m 377.21,723.81 c 0,11.68 -6.01,21.15 -13.42,21.15 -7.42,0 -13.43,-9.47 -13.43,-21.15 0,-11.68 6.01,-21.15 13.43,-21.15 7.41,0 13.42,9.47 13.42,21.15 z"
                 style="fill:#e41a1c;fill-opacity:1"
                 id="path2400"
                 inkscape:connector-curvature="0" />
              <path
                 transform="matrix(0.90106,0.4337,-0.4337,0.90106,349.24,-15.347)"
                 d="m 377.21,723.81 c 0,11.68 -6.01,21.15 -13.42,21.15 -7.42,0 -13.43,-9.47 -13.43,-21.15 0,-11.68 6.01,-21.15 13.43,-21.15 7.41,0 13.42,9.47 13.42,21.15 z"
                 style="fill:#e41a1c;fill-opacity:1"
                 id="path2402"
                 inkscape:connector-curvature="0" />
              <path
                 transform="matrix(-0.64716,0.51168,0.43938,0.85613,217.29,-91.126)"
                 d="m 377.21,723.81 c 0,11.68 -6.01,21.15 -13.42,21.15 -7.42,0 -13.43,-9.47 -13.43,-21.15 0,-11.68 6.01,-21.15 13.43,-21.15 7.41,0 13.42,9.47 13.42,21.15 z"
                 style="fill:#e41a1c;fill-opacity:1"
                 id="path2408"
                 inkscape:connector-curvature="0" />
              <path
                 transform="matrix(-0.64716,0.51168,0.43938,0.85613,220.11,-47.455)"
                 d="m 377.21,723.81 c 0,11.68 -6.01,21.15 -13.42,21.15 -7.42,0 -13.43,-9.47 -13.43,-21.15 0,-11.68 6.01,-21.15 13.43,-21.15 7.41,0 13.42,9.47 13.42,21.15 z"
                 style="fill:#e41a1c;fill-opacity:1"
                 id="path2410"
                 inkscape:connector-curvature="0" />
              <path
                 transform="matrix(-0.64716,0.51168,0.43938,0.85613,222.79,-5.8276)"
                 d="m 377.21,723.81 c 0,11.68 -6.01,21.15 -13.42,21.15 -7.42,0 -13.43,-9.47 -13.43,-21.15 0,-11.68 6.01,-21.15 13.43,-21.15 7.41,0 13.42,9.47 13.42,21.15 z"
                 style="fill:#e41a1c;fill-opacity:1"
                 id="path2412"
                 inkscape:connector-curvature="0" />
              <path
                 transform="matrix(-0.59593,0.48508,0.4046,0.81162,176.71,-76.72)"
                 d="m 377.21,723.81 c 0,11.68 -6.01,21.15 -13.42,21.15 -7.42,0 -13.43,-9.47 -13.43,-21.15 0,-11.68 6.01,-21.15 13.43,-21.15 7.41,0 13.42,9.47 13.42,21.15 z"
                 style="fill:#e41a1c;fill-opacity:1"
                 id="path2414"
                 inkscape:connector-curvature="0" />
              <path
                 transform="matrix(-0.54469,0.49395,0.36981,0.82646,188.42,-50.021)"
                 d="m 377.21,723.81 c 0,11.68 -6.01,21.15 -13.42,21.15 -7.42,0 -13.43,-9.47 -13.43,-21.15 0,-11.68 6.01,-21.15 13.43,-21.15 7.41,0 13.42,9.47 13.42,21.15 z"
                 style="fill:#e41a1c;fill-opacity:1"
                 id="path2416"
                 inkscape:connector-curvature="0" />
              <path
                 transform="matrix(-0.51054,0.423,0.34662,0.70776,197.46,99.989)"
                 d="m 377.21,723.81 c 0,11.68 -6.01,21.15 -13.42,21.15 -7.42,0 -13.43,-9.47 -13.43,-21.15 0,-11.68 6.01,-21.15 13.43,-21.15 7.41,0 13.42,9.47 13.42,21.15 z"
                 style="fill:#e41a1c;fill-opacity:1"
                 id="path2418"
                 inkscape:connector-curvature="0" />
              <path
                 transform="matrix(0.27703,0.61136,0.84004,-0.12619,-423.56,515.22)"
                 d="m 377.21,723.81 c 0,11.68 -6.01,21.15 -13.42,21.15 -7.42,0 -13.43,-9.47 -13.43,-21.15 0,-11.68 6.01,-21.15 13.43,-21.15 7.41,0 13.42,9.47 13.42,21.15 z"
                 style="fill:#e41a1c;fill-opacity:1"
                 id="path2422"
                 inkscape:connector-curvature="0" />
              <path
                 transform="matrix(0.26167,0.54005,0.79344,-0.11147,-324.84,512.72)"
                 d="m 377.21,723.81 c 0,11.68 -6.01,21.15 -13.42,21.15 -7.42,0 -13.43,-9.47 -13.43,-21.15 0,-11.68 6.01,-21.15 13.43,-21.15 7.41,0 13.42,9.47 13.42,21.15 z"
                 style="fill:#e41a1c;fill-opacity:1"
                 id="path2424"
                 inkscape:connector-curvature="0" />
              <path
                 transform="matrix(0.32314,0.58759,0.97984,-0.12128,-488.1,523.02)"
                 d="m 377.21,723.81 c 0,11.68 -6.01,21.15 -13.42,21.15 -7.42,0 -13.43,-9.47 -13.43,-21.15 0,-11.68 6.01,-21.15 13.43,-21.15 7.41,0 13.42,9.47 13.42,21.15 z"
                 style="fill:#e41a1c;fill-opacity:1"
                 id="path2428"
                 inkscape:connector-curvature="0" />
              <path
                 transform="matrix(0.33338,0.63513,1.0109,-0.13109,-518.73,535.54)"
                 d="m 377.21,723.81 c 0,11.68 -6.01,21.15 -13.42,21.15 -7.42,0 -13.43,-9.47 -13.43,-21.15 0,-11.68 6.01,-21.15 13.43,-21.15 7.41,0 13.42,9.47 13.42,21.15 z"
                 style="fill:#e41a1c;fill-opacity:1"
                 id="path2430"
                 inkscape:connector-curvature="0" />
            </g>
          </g>
        </g>
      </g>
    </g>
  </g>
</svg>
