<?xml version="1.0" encoding="UTF-8" standalone="no"?>
<!-- Created with Inkscape (http://www.inkscape.org/) -->

<svg
   xmlns:dc="http://purl.org/dc/elements/1.1/"
   xmlns:cc="http://creativecommons.org/ns#"
   xmlns:rdf="http://www.w3.org/1999/02/22-rdf-syntax-ns#"
   xmlns:svg="http://www.w3.org/2000/svg"
   xmlns="http://www.w3.org/2000/svg"
   xmlns:sodipodi="http://sodipodi.sourceforge.net/DTD/sodipodi-0.dtd"
   xmlns:inkscape="http://www.inkscape.org/namespaces/inkscape"
   width="512"
   height="512"
   viewBox="0 0 512.00001 512.00001"
   id="svg2"
   version="1.1"
   inkscape:version="0.91 r13725"
   sodipodi:docname="touch_sensor.svg"
   inkscape:export-filename="/home/milad/Dropbox/software/apps/neuronify/neuronify/images/generators/touch_sensor.png"
   inkscape:export-xdpi="22.5"
   inkscape:export-ydpi="22.5">
  <defs
     id="defs4">
    <inkscape:path-effect
       effect="spiro"
       id="path-effect4308"
       is_visible="true" />
    <inkscape:path-effect
       effect="spiro"
       id="path-effect3504"
       is_visible="true" />
    <inkscape:path-effect
       effect="spiro"
       id="path-effect4713"
       is_visible="true" />
    <inkscape:path-effect
       effect="spiro"
       id="path-effect4709"
       is_visible="true" />
  </defs>
  <sodipodi:namedview
     id="base"
     pagecolor="#ffffff"
     bordercolor="#666666"
     borderopacity="1.0"
     inkscape:pageopacity="0.0"
     inkscape:pageshadow="2"
     inkscape:zoom="0.7"
     inkscape:cx="404.75561"
     inkscape:cy="520.72166"
     inkscape:document-units="px"
     inkscape:current-layer="layer1"
     showgrid="false"
     units="px"
     inkscape:window-width="1560"
     inkscape:window-height="1735"
     inkscape:window-x="1640"
     inkscape:window-y="30"
     inkscape:window-maximized="0"
     inkscape:object-nodes="true"
     inkscape:snap-midpoints="true"
     inkscape:snap-object-midpoints="true"
     inkscape:snap-center="true">
    <inkscape:grid
       type="xygrid"
       id="grid4136" />
  </sodipodi:namedview>
  <metadata
     id="metadata7">
    <rdf:RDF>
      <cc:Work
         rdf:about="">
        <dc:format>image/svg+xml</dc:format>
        <dc:type
           rdf:resource="http://purl.org/dc/dcmitype/StillImage" />
        <dc:title />
      </cc:Work>
    </rdf:RDF>
  </metadata>
  <g
     inkscape:label="Layer 1"
     inkscape:groupmode="layer"
     id="layer1"
     transform="translate(0,-540.36216)">
    <rect
       style="fill:#dd5900;fill-opacity:1;stroke:#ffcc00;stroke-width:16;stroke-linecap:round;stroke-miterlimit:4;stroke-dasharray:none;stroke-dashoffset:0;stroke-opacity:1"
       id="rect4705-3"
       width="448"
       height="447.99997"
       x="32"
       y="572.36218"
       ry="169.38075" />
    <path
       style="opacity:1;fill:#dd5900;fill-opacity:1;stroke:#ffcc00;stroke-width:22.73056412;stroke-linecap:round;stroke-linejoin:miter;stroke-miterlimit:4;stroke-dasharray:none;stroke-dashoffset:0;stroke-opacity:1"
       d="M 225.99505,938.33935 86.435607,712.3194 c 0.688261,-11.14203 4.458743,-22.07796 10.783534,-31.27663 6.324789,-9.19866 15.186129,-16.63424 25.343319,-21.26565 16.78663,-7.65426 37.03099,-7.27062 53.51557,1.01416 l 116.46992,186.27792 5.47997,-3.96685 -48.67363,-76.00793 c -1.95718,-3.0563 -3.89508,-6.14741 -5.30223,-9.49278 -1.40715,-3.34537 -2.2759,-6.93685 -2.33676,-10.5656 -0.0609,-3.62876 0.68598,-7.26815 2.17012,-10.58007 1.48415,-3.31193 3.68867,-6.28667 6.35217,-8.7519 4.80444,-4.44681 11.12889,-7.22025 17.65457,-7.74202 6.52569,-0.52176 13.21047,1.21152 18.66045,4.83843 l 54.51202,79.43945 4.58846,-5.65991 -42.43446,-67.80723 c -1.27124,-2.03134 -2.52011,-4.10946 -3.22677,-6.39923 -0.70665,-2.28977 -0.85227,-4.76685 -0.28595,-7.0953 0.56632,-2.32845 1.82581,-4.4667 3.50397,-6.17731 1.67816,-1.7106 3.74788,-3.00063 5.93036,-3.99017 5.05858,-2.29358 10.81052,-3.02997 16.28375,-2.08472 5.47323,0.94526 10.645,3.56822 14.64127,7.42562 l 43.36911,57.51348 9.52484,-7.45534 -41.44247,-50.72578 c -1.5505,-4.04297 -1.82437,-8.56492 -0.77315,-12.76547 1.05122,-4.20054 3.42273,-8.06046 6.69477,-10.89655 5.22531,-4.52911 12.74555,-6.25771 19.42403,-4.46479 6.67849,1.79292 12.32188,7.05545 14.57632,13.59259 l 34.23083,47.04509"
       id="path3502"
       inkscape:path-effect="#path-effect3504"
       inkscape:original-d="M 225.99505,938.33935 86.435607,712.3194 c 0,0 4.76018,-38.18801 36.126853,-52.54228 31.36667,-14.35426 53.51557,1.01416 53.51557,1.01416 l 116.46992,186.27792 5.47997,-3.96685 -48.67363,-76.00793 c 0,0 -17.65043,-25.30599 0.8833,-39.39035 18.53374,-14.08435 36.31502,-2.90359 36.31502,-2.90359 l 54.51202,79.43945 4.58846,-5.65991 -42.43446,-67.80723 c 0,0 -9.31596,-15.63835 5.92161,-23.66201 15.23758,-8.02366 30.92502,5.3409 30.92502,5.3409 l 43.36911,57.51348 9.52484,-7.45534 -41.44247,-50.72578 c 0,0 -17.78128,-11.18076 5.92162,-23.66202 23.70289,-12.48126 34.00035,9.1278 34.00035,9.1278 l 34.23083,47.04509"
       inkscape:connector-curvature="0"
       sodipodi:nodetypes="ccsccccsccccsccccscc" />
  </g>
</svg>
