<?xml version="1.0" encoding="UTF-8" standalone="no"?>
<!-- Created with Inkscape (http://www.inkscape.org/) -->

<svg
   xmlns:dc="http://purl.org/dc/elements/1.1/"
   xmlns:cc="http://creativecommons.org/ns#"
   xmlns:rdf="http://www.w3.org/1999/02/22-rdf-syntax-ns#"
   xmlns:svg="http://www.w3.org/2000/svg"
   xmlns="http://www.w3.org/2000/svg"
   xmlns:sodipodi="http://sodipodi.sourceforge.net/DTD/sodipodi-0.dtd"
   xmlns:inkscape="http://www.inkscape.org/namespaces/inkscape"
   width="512"
   height="512"
   viewBox="0 0 512.00001 512.00001"
   id="svg2"
   version="1.1"
   inkscape:version="0.91 r"
   sodipodi:docname="touch_sensor.svg"
   inkscape:export-filename="poisson_generator.png"
   inkscape:export-xdpi="22.5"
   inkscape:export-ydpi="22.5">
  <defs
     id="defs4">
    <inkscape:path-effect
       effect="spiro"
       id="path-effect4308"
       is_visible="true" />
    <inkscape:path-effect
       effect="spiro"
       id="path-effect3504"
       is_visible="true" />
    <inkscape:path-effect
       effect="spiro"
       id="path-effect4713"
       is_visible="true" />
    <inkscape:path-effect
       effect="spiro"
       id="path-effect4709"
       is_visible="true" />
  </defs>
  <sodipodi:namedview
     id="base"
     pagecolor="#ffffff"
     bordercolor="#666666"
     borderopacity="1.0"
     inkscape:pageopacity="0.0"
     inkscape:pageshadow="2"
     inkscape:zoom="0.49497475"
     inkscape:cx="233.265"
     inkscape:cy="235.82588"
     inkscape:document-units="px"
     inkscape:current-layer="layer1"
     showgrid="false"
     units="px"
     inkscape:window-width="2511"
     inkscape:window-height="1416"
     inkscape:window-x="49"
     inkscape:window-y="24"
     inkscape:window-maximized="1"
     inkscape:object-nodes="true"
     inkscape:snap-midpoints="true"
     inkscape:snap-object-midpoints="true"
     inkscape:snap-center="true">
    <inkscape:grid
       type="xygrid"
       id="grid4136" />
  </sodipodi:namedview>
  <metadata
     id="metadata7">
    <rdf:RDF>
      <cc:Work
         rdf:about="">
        <dc:format>image/svg+xml</dc:format>
        <dc:type
           rdf:resource="http://purl.org/dc/dcmitype/StillImage" />
        <dc:title></dc:title>
      </cc:Work>
    </rdf:RDF>
  </metadata>
  <g
     inkscape:label="Layer 1"
     inkscape:groupmode="layer"
     id="layer1"
     transform="translate(0,-540.36216)">
    <rect
       style="fill:#0088aa;fill-opacity:1;stroke:#80e5ff;stroke-width:16;stroke-linecap:round;stroke-miterlimit:4;stroke-dasharray:none;stroke-dashoffset:0;stroke-opacity:1"
       id="rect4705"
       width="448"
       height="447.99997"
       x="32"
       y="572.36218"
       ry="42.237881" />
    <path
       style="opacity:1;fill:#0088aa;fill-opacity:1;stroke:#80e5ff;stroke-width:24;stroke-linecap:round;stroke-linejoin:miter;stroke-miterlimit:4;stroke-dasharray:none;stroke-dashoffset:0;stroke-opacity:1"
       d="M 237.91924,957.46837 90.56582,718.82587 c 0.726697,-11.76428 4.707748,-23.31094 11.38576,-33.02333 6.67801,-9.71239 16.03422,-17.56322 26.75866,-22.45328 17.72412,-8.08174 39.09906,-7.67667 56.50426,1.07079 l 122.97443,196.681 5.78601,-4.18839 -51.39191,-80.25275 c -2.06649,-3.22699 -4.1126,-6.49072 -5.59834,-10.02292 -1.48574,-3.5322 -2.40301,-7.32425 -2.46727,-11.15566 -0.0642,-3.83141 0.72429,-7.67405 2.29132,-11.17094 1.56704,-3.49689 3.89468,-6.63776 6.70692,-9.24066 5.07276,-4.69515 11.7504,-7.62348 18.64052,-8.17439 6.89013,-0.5509 13.94823,1.27918 19.70258,5.10864 l 57.55636,83.87591 4.84471,-5.976 -44.8043,-71.59406 c -1.34223,-2.14479 -2.66085,-4.33896 -3.40697,-6.75661 -0.74612,-2.41765 -0.89987,-5.03307 -0.30192,-7.49155 0.59794,-2.45849 1.92777,-4.71616 3.69965,-6.5223 1.77189,-1.80614 3.9572,-3.1682 6.26156,-4.21301 5.34108,-2.42167 11.41426,-3.19918 17.19315,-2.20114 5.77889,0.99804 11.23948,3.76749 15.45894,7.84031 l 45.79115,60.72544 10.05677,-7.87169 -43.75691,-53.55867 c -1.63709,-4.26876 -1.92626,-9.04325 -0.81634,-13.47838 1.10993,-4.43514 3.61388,-8.51062 7.06866,-11.5051 5.51713,-4.78205 13.45735,-6.60718 20.50881,-4.71413 7.05146,1.89305 13.01002,7.44947 15.39036,14.3517 l 36.14253,49.67242"
       id="path3502"
       inkscape:path-effect="#path-effect3504"
       inkscape:original-d="M 237.91924,957.46837 90.56582,718.82587 c 0,0 5.02602,-40.3207 38.14442,-55.47661 33.11841,-15.15591 56.50426,1.07079 56.50426,1.07079 l 122.97443,196.681 5.78601,-4.18839 -51.39191,-80.25275 c 0,0 -18.63616,-26.71925 0.93263,-41.59018 19.56879,-14.87092 38.3431,-3.06575 38.3431,-3.06575 l 57.55636,83.87591 4.84471,-5.976 -44.8043,-71.59406 c 0,0 -9.83623,-16.51171 6.25232,-24.98347 16.08855,-8.47176 32.65209,5.63917 32.65209,5.63917 l 45.79115,60.72544 10.05677,-7.87169 -43.75691,-53.55867 c 0,0 -18.77431,-11.80517 6.25232,-24.98348 25.02663,-13.1783 35.89917,9.63757 35.89917,9.63757 l 36.14253,49.67242"
       inkscape:connector-curvature="0"
       sodipodi:nodetypes="ccsccccsccccsccccscc" />
  </g>
</svg>
