<?xml version="1.0" encoding="UTF-8" standalone="no"?>
<!-- Created with Inkscape (http://www.inkscape.org/) -->

<svg
   xmlns:dc="http://purl.org/dc/elements/1.1/"
   xmlns:cc="http://creativecommons.org/ns#"
   xmlns:rdf="http://www.w3.org/1999/02/22-rdf-syntax-ns#"
   xmlns:svg="http://www.w3.org/2000/svg"
   xmlns="http://www.w3.org/2000/svg"
   xmlns:sodipodi="http://sodipodi.sourceforge.net/DTD/sodipodi-0.dtd"
   xmlns:inkscape="http://www.inkscape.org/namespaces/inkscape"
   width="512"
   height="512"
   viewBox="0 0 512.00001 512.00001"
   id="svg2"
   version="1.1"
   inkscape:version="0.91 r13725"
   sodipodi:docname="spikemeter.svg"
   inkscape:export-filename="/home/milad/Dropbox/software/apps/neuronify/neuronify/images/meters/spikemeter.png"
   inkscape:export-xdpi="22"
   inkscape:export-ydpi="22">
  <defs
     id="defs4">
    <inkscape:path-effect
       effect="spiro"
       id="path-effect4138"
       is_visible="true" />
  </defs>
  <sodipodi:namedview
     id="base"
     pagecolor="#ffffff"
     bordercolor="#666666"
     borderopacity="1.0"
     inkscape:pageopacity="0.0"
     inkscape:pageshadow="2"
     inkscape:zoom="1.5673828"
     inkscape:cx="31.577348"
     inkscape:cy="412.36796"
     inkscape:document-units="px"
     inkscape:current-layer="g4350"
     showgrid="false"
     units="px"
     inkscape:window-width="3119"
     inkscape:window-height="1770"
     inkscape:window-x="81"
     inkscape:window-y="30"
     inkscape:window-maximized="1">
    <inkscape:grid
       type="xygrid"
       id="grid4136" />
  </sodipodi:namedview>
  <metadata
     id="metadata7">
    <rdf:RDF>
      <cc:Work
         rdf:about="">
        <dc:format>image/svg+xml</dc:format>
        <dc:type
           rdf:resource="http://purl.org/dc/dcmitype/StillImage" />
        <dc:title />
      </cc:Work>
    </rdf:RDF>
  </metadata>
  <g
     inkscape:label="Layer 1"
     inkscape:groupmode="layer"
     id="layer1"
     transform="translate(0,-540.36216)">
    <rect
       style="fill:#deebf7;fill-opacity:1;stroke:#9ecae1;stroke-width:16;stroke-linecap:round;stroke-miterlimit:4;stroke-dasharray:none;stroke-dashoffset:0;stroke-opacity:1"
       id="rect4134"
       width="448"
       height="320.00003"
       x="32.456699"
       y="636.36218"
       inkscape:export-filename="voltmeter.png"
       inkscape:export-xdpi="22"
       inkscape:export-ydpi="22" />
    <g
       id="g4475"
       transform="translate(0,4.3614044)">
      <g
         transform="translate(0,-26)"
         id="g4350">
        <path
           style="opacity:1;fill:#e41a1c;fill-opacity:1;stroke:none;stroke-width:10;stroke-linecap:round;stroke-linejoin:round;stroke-miterlimit:4;stroke-dasharray:none;stroke-dashoffset:0;stroke-opacity:1"
           id="path4157"
           sodipodi:type="arc"
           sodipodi:cx="71.456696"
           sodipodi:cy="912.00079"
           sodipodi:rx="7.6560745"
           sodipodi:ry="7.6560745"
           sodipodi:start="1.5474403"
           sodipodi:end="1.5466218"
           sodipodi:open="true"
           d="m 71.635495,919.65478 a 7.6560745,7.6560745 0 0 1 -7.832749,-7.47362 7.6560745,7.6560745 0 0 1 7.472018,-7.83428 7.6560745,7.6560745 0 0 1 7.835807,7.47042 7.6560745,7.6560745 0 0 1 -7.468811,7.83733" />
        <path
           d="m 85.635495,919.65478 a 7.6560745,7.6560745 0 0 1 -7.832749,-7.47362 7.6560745,7.6560745 0 0 1 7.472018,-7.83428 7.6560745,7.6560745 0 0 1 7.835807,7.47042 7.6560745,7.6560745 0 0 1 -7.468811,7.83733"
           sodipodi:open="true"
           sodipodi:end="1.5466218"
           sodipodi:start="1.5474403"
           sodipodi:ry="7.6560745"
           sodipodi:rx="7.6560745"
           sodipodi:cy="912.00079"
           sodipodi:cx="85.456696"
           sodipodi:type="arc"
           id="path4159"
           style="opacity:1;fill:#e41a1c;fill-opacity:1;stroke:none;stroke-width:10;stroke-linecap:round;stroke-linejoin:round;stroke-miterlimit:4;stroke-dasharray:none;stroke-dashoffset:0;stroke-opacity:1" />
        <path
           style="opacity:1;fill:#e41a1c;fill-opacity:1;stroke:none;stroke-width:10;stroke-linecap:round;stroke-linejoin:round;stroke-miterlimit:4;stroke-dasharray:none;stroke-dashoffset:0;stroke-opacity:1"
           id="path4161"
           sodipodi:type="arc"
           sodipodi:cx="97.456696"
           sodipodi:cy="912.00079"
           sodipodi:rx="7.6560745"
           sodipodi:ry="7.6560745"
           sodipodi:start="1.5474403"
           sodipodi:end="1.5466218"
           sodipodi:open="true"
           d="m 97.635495,919.65478 a 7.6560745,7.6560745 0 0 1 -7.832749,-7.47362 7.6560745,7.6560745 0 0 1 7.472018,-7.83428 7.6560745,7.6560745 0 0 1 7.835806,7.47042 7.6560745,7.6560745 0 0 1 -7.46881,7.83733" />
        <path
           d="m 121.6355,919.65478 a 7.6560745,7.6560745 0 0 1 -7.83275,-7.47362 7.6560745,7.6560745 0 0 1 7.47202,-7.83428 7.6560745,7.6560745 0 0 1 7.83581,7.47042 7.6560745,7.6560745 0 0 1 -7.46881,7.83733"
           sodipodi:open="true"
           sodipodi:end="1.5466218"
           sodipodi:start="1.5474403"
           sodipodi:ry="7.6560745"
           sodipodi:rx="7.6560745"
           sodipodi:cy="912.00079"
           sodipodi:cx="121.4567"
           sodipodi:type="arc"
           id="path4163"
           style="opacity:1;fill:#e41a1c;fill-opacity:1;stroke:none;stroke-width:10;stroke-linecap:round;stroke-linejoin:round;stroke-miterlimit:4;stroke-dasharray:none;stroke-dashoffset:0;stroke-opacity:1" />
        <path
           style="opacity:1;fill:#e41a1c;fill-opacity:1;stroke:none;stroke-width:10;stroke-linecap:round;stroke-linejoin:round;stroke-miterlimit:4;stroke-dasharray:none;stroke-dashoffset:0;stroke-opacity:1"
           id="path4169"
           sodipodi:type="arc"
           sodipodi:cx="207.4567"
           sodipodi:cy="912.00079"
           sodipodi:rx="7.6560745"
           sodipodi:ry="7.6560745"
           sodipodi:start="1.5474403"
           sodipodi:end="1.5466218"
           sodipodi:open="true"
           d="m 207.63549,919.65478 a 7.6560745,7.6560745 0 0 1 -7.83274,-7.47362 7.6560745,7.6560745 0 0 1 7.47201,-7.83428 7.6560745,7.6560745 0 0 1 7.83581,7.47042 7.6560745,7.6560745 0 0 1 -7.46881,7.83733" />
        <path
           d="m 267.63549,919.65478 a 7.6560745,7.6560745 0 0 1 -7.83274,-7.47362 7.6560745,7.6560745 0 0 1 7.47201,-7.83428 7.6560745,7.6560745 0 0 1 7.83581,7.47042 7.6560745,7.6560745 0 0 1 -7.46881,7.83733"
           sodipodi:open="true"
           sodipodi:end="1.5466218"
           sodipodi:start="1.5474403"
           sodipodi:ry="7.6560745"
           sodipodi:rx="7.6560745"
           sodipodi:cy="912.00079"
           sodipodi:cx="267.4567"
           sodipodi:type="arc"
           id="path4175"
           style="opacity:1;fill:#e41a1c;fill-opacity:1;stroke:none;stroke-width:10;stroke-linecap:round;stroke-linejoin:round;stroke-miterlimit:4;stroke-dasharray:none;stroke-dashoffset:0;stroke-opacity:1" />
        <path
           style="opacity:1;fill:#e41a1c;fill-opacity:1;stroke:none;stroke-width:10;stroke-linecap:round;stroke-linejoin:round;stroke-miterlimit:4;stroke-dasharray:none;stroke-dashoffset:0;stroke-opacity:1"
           id="path4177"
           sodipodi:type="arc"
           sodipodi:cx="317.4567"
           sodipodi:cy="912.00079"
           sodipodi:rx="7.6560745"
           sodipodi:ry="7.6560745"
           sodipodi:start="1.5474403"
           sodipodi:end="1.5466218"
           sodipodi:open="true"
           d="m 317.63549,919.65478 a 7.6560745,7.6560745 0 0 1 -7.83274,-7.47362 7.6560745,7.6560745 0 0 1 7.47201,-7.83428 7.6560745,7.6560745 0 0 1 7.83581,7.47042 7.6560745,7.6560745 0 0 1 -7.46881,7.83733" />
        <path
           style="opacity:1;fill:#e41a1c;fill-opacity:1;stroke:none;stroke-width:10;stroke-linecap:round;stroke-linejoin:round;stroke-miterlimit:4;stroke-dasharray:none;stroke-dashoffset:0;stroke-opacity:1"
           id="path4181"
           sodipodi:type="arc"
           sodipodi:cx="391.4567"
           sodipodi:cy="912.00079"
           sodipodi:rx="7.6560745"
           sodipodi:ry="7.6560745"
           sodipodi:start="1.5474403"
           sodipodi:end="1.5466218"
           sodipodi:open="true"
           d="m 391.63549,919.65478 a 7.6560745,7.6560745 0 0 1 -7.83274,-7.47362 7.6560745,7.6560745 0 0 1 7.47201,-7.83428 7.6560745,7.6560745 0 0 1 7.83581,7.47042 7.6560745,7.6560745 0 0 1 -7.46881,7.83733" />
        <path
           style="opacity:1;fill:#e41a1c;fill-opacity:1;stroke:none;stroke-width:10;stroke-linecap:round;stroke-linejoin:round;stroke-miterlimit:4;stroke-dasharray:none;stroke-dashoffset:0;stroke-opacity:1"
           id="path4185"
           sodipodi:type="arc"
           sodipodi:cx="409.4567"
           sodipodi:cy="912.00079"
           sodipodi:rx="7.6560745"
           sodipodi:ry="7.6560745"
           sodipodi:start="1.5474403"
           sodipodi:end="1.5466218"
           sodipodi:open="true"
           d="m 409.63549,919.65478 a 7.6560745,7.6560745 0 0 1 -7.83274,-7.47362 7.6560745,7.6560745 0 0 1 7.47201,-7.83428 7.6560745,7.6560745 0 0 1 7.83581,7.47042 7.6560745,7.6560745 0 0 1 -7.46881,7.83733" />
        <path
           d="m 447.63549,919.65478 a 7.6560745,7.6560745 0 0 1 -7.83274,-7.47362 7.6560745,7.6560745 0 0 1 7.47201,-7.83428 7.6560745,7.6560745 0 0 1 7.83581,7.47042 7.6560745,7.6560745 0 0 1 -7.46881,7.83733"
           sodipodi:open="true"
           sodipodi:end="1.5466218"
           sodipodi:start="1.5474403"
           sodipodi:ry="7.6560745"
           sodipodi:rx="7.6560745"
           sodipodi:cy="912.00079"
           sodipodi:cx="447.4567"
           sodipodi:type="arc"
           id="path4187"
           style="opacity:1;fill:#e41a1c;fill-opacity:1;stroke:none;stroke-width:10;stroke-linecap:round;stroke-linejoin:round;stroke-miterlimit:4;stroke-dasharray:none;stroke-dashoffset:0;stroke-opacity:1" />
      </g>
      <g
         transform="translate(0,-20.666657)"
         id="g4368">
        <path
           style="opacity:1;fill:#e41a1c;fill-opacity:1;stroke:none;stroke-width:10;stroke-linecap:round;stroke-linejoin:round;stroke-miterlimit:4;stroke-dasharray:none;stroke-dashoffset:0;stroke-opacity:1"
           id="path4189"
           sodipodi:type="arc"
           sodipodi:cx="447.4567"
           sodipodi:cy="844.00079"
           sodipodi:rx="7.6560745"
           sodipodi:ry="7.6560745"
           sodipodi:start="1.5474403"
           sodipodi:end="1.5466218"
           sodipodi:open="true"
           d="m 447.63549,851.65478 a 7.6560745,7.6560745 0 0 1 -7.83274,-7.47362 7.6560745,7.6560745 0 0 1 7.47201,-7.83428 7.6560745,7.6560745 0 0 1 7.83581,7.47042 7.6560745,7.6560745 0 0 1 -7.46881,7.83733" />
        <path
           d="m 407.63549,851.65478 a 7.6560745,7.6560745 0 0 1 -7.83274,-7.47362 7.6560745,7.6560745 0 0 1 7.47201,-7.83428 7.6560745,7.6560745 0 0 1 7.83581,7.47042 7.6560745,7.6560745 0 0 1 -7.46881,7.83733"
           sodipodi:open="true"
           sodipodi:end="1.5466218"
           sodipodi:start="1.5474403"
           sodipodi:ry="7.6560745"
           sodipodi:rx="7.6560745"
           sodipodi:cy="844.00079"
           sodipodi:cx="407.4567"
           sodipodi:type="arc"
           id="path4191"
           style="opacity:1;fill:#e41a1c;fill-opacity:1;stroke:none;stroke-width:10;stroke-linecap:round;stroke-linejoin:round;stroke-miterlimit:4;stroke-dasharray:none;stroke-dashoffset:0;stroke-opacity:1" />
        <path
           d="m 363.63549,851.65478 a 7.6560745,7.6560745 0 0 1 -7.83274,-7.47362 7.6560745,7.6560745 0 0 1 7.47201,-7.83428 7.6560745,7.6560745 0 0 1 7.83581,7.47042 7.6560745,7.6560745 0 0 1 -7.46881,7.83733"
           sodipodi:open="true"
           sodipodi:end="1.5466218"
           sodipodi:start="1.5474403"
           sodipodi:ry="7.6560745"
           sodipodi:rx="7.6560745"
           sodipodi:cy="844.00079"
           sodipodi:cx="363.4567"
           sodipodi:type="arc"
           id="path4195"
           style="opacity:1;fill:#e41a1c;fill-opacity:1;stroke:none;stroke-width:10;stroke-linecap:round;stroke-linejoin:round;stroke-miterlimit:4;stroke-dasharray:none;stroke-dashoffset:0;stroke-opacity:1" />
        <path
           style="opacity:1;fill:#e41a1c;fill-opacity:1;stroke:none;stroke-width:10;stroke-linecap:round;stroke-linejoin:round;stroke-miterlimit:4;stroke-dasharray:none;stroke-dashoffset:0;stroke-opacity:1"
           id="path4197"
           sodipodi:type="arc"
           sodipodi:cx="331.4567"
           sodipodi:cy="844.00079"
           sodipodi:rx="7.6560745"
           sodipodi:ry="7.6560745"
           sodipodi:start="1.5474403"
           sodipodi:end="1.5466218"
           sodipodi:open="true"
           d="m 331.63549,851.65478 a 7.6560745,7.6560745 0 0 1 -7.83274,-7.47362 7.6560745,7.6560745 0 0 1 7.47201,-7.83428 7.6560745,7.6560745 0 0 1 7.83581,7.47042 7.6560745,7.6560745 0 0 1 -7.46881,7.83733" />
        <path
           d="m 275.63549,851.65478 a 7.6560745,7.6560745 0 0 1 -7.83274,-7.47362 7.6560745,7.6560745 0 0 1 7.47201,-7.83428 7.6560745,7.6560745 0 0 1 7.83581,7.47042 7.6560745,7.6560745 0 0 1 -7.46881,7.83733"
           sodipodi:open="true"
           sodipodi:end="1.5466218"
           sodipodi:start="1.5474403"
           sodipodi:ry="7.6560745"
           sodipodi:rx="7.6560745"
           sodipodi:cy="844.00079"
           sodipodi:cx="275.4567"
           sodipodi:type="arc"
           id="path4199"
           style="opacity:1;fill:#e41a1c;fill-opacity:1;stroke:none;stroke-width:10;stroke-linecap:round;stroke-linejoin:round;stroke-miterlimit:4;stroke-dasharray:none;stroke-dashoffset:0;stroke-opacity:1" />
        <path
           style="opacity:1;fill:#e41a1c;fill-opacity:1;stroke:none;stroke-width:10;stroke-linecap:round;stroke-linejoin:round;stroke-miterlimit:4;stroke-dasharray:none;stroke-dashoffset:0;stroke-opacity:1"
           id="path4201"
           sodipodi:type="arc"
           sodipodi:cx="171.4567"
           sodipodi:cy="844.00079"
           sodipodi:rx="7.6560745"
           sodipodi:ry="7.6560745"
           sodipodi:start="1.5474403"
           sodipodi:end="1.5466218"
           sodipodi:open="true"
           d="m 171.63549,851.65478 a 7.6560745,7.6560745 0 0 1 -7.83274,-7.47362 7.6560745,7.6560745 0 0 1 7.47201,-7.83428 7.6560745,7.6560745 0 0 1 7.83581,7.47042 7.6560745,7.6560745 0 0 1 -7.46881,7.83733" />
        <path
           d="m 151.63549,851.65478 a 7.6560745,7.6560745 0 0 1 -7.83274,-7.47362 7.6560745,7.6560745 0 0 1 7.47201,-7.83428 7.6560745,7.6560745 0 0 1 7.83581,7.47042 7.6560745,7.6560745 0 0 1 -7.46881,7.83733"
           sodipodi:open="true"
           sodipodi:end="1.5466218"
           sodipodi:start="1.5474403"
           sodipodi:ry="7.6560745"
           sodipodi:rx="7.6560745"
           sodipodi:cy="844.00079"
           sodipodi:cx="151.4567"
           sodipodi:type="arc"
           id="path4203"
           style="opacity:1;fill:#e41a1c;fill-opacity:1;stroke:none;stroke-width:10;stroke-linecap:round;stroke-linejoin:round;stroke-miterlimit:4;stroke-dasharray:none;stroke-dashoffset:0;stroke-opacity:1" />
        <path
           style="opacity:1;fill:#e41a1c;fill-opacity:1;stroke:none;stroke-width:10;stroke-linecap:round;stroke-linejoin:round;stroke-miterlimit:4;stroke-dasharray:none;stroke-dashoffset:0;stroke-opacity:1"
           id="path4205"
           sodipodi:type="arc"
           sodipodi:cx="65.456703"
           sodipodi:cy="844.00079"
           sodipodi:rx="7.6560745"
           sodipodi:ry="7.6560745"
           sodipodi:start="1.5474403"
           sodipodi:end="1.5466218"
           sodipodi:open="true"
           d="m 65.635502,851.65478 a 7.6560745,7.6560745 0 0 1 -7.832748,-7.47362 7.6560745,7.6560745 0 0 1 7.472018,-7.83428 7.6560745,7.6560745 0 0 1 7.835806,7.47042 7.6560745,7.6560745 0 0 1 -7.468811,7.83733" />
      </g>
      <g
         transform="translate(0,-23.333343)"
         id="g4379">
        <path
           d="m 65.635502,791.65478 a 7.6560745,7.6560745 0 0 1 -7.832748,-7.47362 7.6560745,7.6560745 0 0 1 7.472018,-7.83428 7.6560745,7.6560745 0 0 1 7.835806,7.47042 7.6560745,7.6560745 0 0 1 -7.468811,7.83733"
           sodipodi:open="true"
           sodipodi:end="1.5466218"
           sodipodi:start="1.5474403"
           sodipodi:ry="7.6560745"
           sodipodi:rx="7.6560745"
           sodipodi:cy="784.00079"
           sodipodi:cx="65.456703"
           sodipodi:type="arc"
           id="path4207"
           style="opacity:1;fill:#e41a1c;fill-opacity:1;stroke:none;stroke-width:10;stroke-linecap:round;stroke-linejoin:round;stroke-miterlimit:4;stroke-dasharray:none;stroke-dashoffset:0;stroke-opacity:1" />
        <path
           d="m 93.635502,791.65478 a 7.6560745,7.6560745 0 0 1 -7.832748,-7.47362 7.6560745,7.6560745 0 0 1 7.472018,-7.83428 7.6560745,7.6560745 0 0 1 7.835808,7.47042 7.6560745,7.6560745 0 0 1 -7.468813,7.83733"
           sodipodi:open="true"
           sodipodi:end="1.5466218"
           sodipodi:start="1.5474403"
           sodipodi:ry="7.6560745"
           sodipodi:rx="7.6560745"
           sodipodi:cy="784.00079"
           sodipodi:cx="93.456703"
           sodipodi:type="arc"
           id="path4211"
           style="opacity:1;fill:#e41a1c;fill-opacity:1;stroke:none;stroke-width:10;stroke-linecap:round;stroke-linejoin:round;stroke-miterlimit:4;stroke-dasharray:none;stroke-dashoffset:0;stroke-opacity:1" />
        <path
           d="m 193.63549,791.65478 a 7.6560745,7.6560745 0 0 1 -7.83274,-7.47362 7.6560745,7.6560745 0 0 1 7.47201,-7.83428 7.6560745,7.6560745 0 0 1 7.83581,7.47042 7.6560745,7.6560745 0 0 1 -7.46881,7.83733"
           sodipodi:open="true"
           sodipodi:end="1.5466218"
           sodipodi:start="1.5474403"
           sodipodi:ry="7.6560745"
           sodipodi:rx="7.6560745"
           sodipodi:cy="784.00079"
           sodipodi:cx="193.4567"
           sodipodi:type="arc"
           id="path4215"
           style="opacity:1;fill:#e41a1c;fill-opacity:1;stroke:none;stroke-width:10;stroke-linecap:round;stroke-linejoin:round;stroke-miterlimit:4;stroke-dasharray:none;stroke-dashoffset:0;stroke-opacity:1" />
        <path
           style="opacity:1;fill:#e41a1c;fill-opacity:1;stroke:none;stroke-width:10;stroke-linecap:round;stroke-linejoin:round;stroke-miterlimit:4;stroke-dasharray:none;stroke-dashoffset:0;stroke-opacity:1"
           id="path4217"
           sodipodi:type="arc"
           sodipodi:cx="225.4567"
           sodipodi:cy="784.00079"
           sodipodi:rx="7.6560745"
           sodipodi:ry="7.6560745"
           sodipodi:start="1.5474403"
           sodipodi:end="1.5466218"
           sodipodi:open="true"
           d="m 225.63549,791.65478 a 7.6560745,7.6560745 0 0 1 -7.83274,-7.47362 7.6560745,7.6560745 0 0 1 7.47201,-7.83428 7.6560745,7.6560745 0 0 1 7.83581,7.47042 7.6560745,7.6560745 0 0 1 -7.46881,7.83733" />
        <path
           d="m 235.63549,791.65478 a 7.6560745,7.6560745 0 0 1 -7.83274,-7.47362 7.6560745,7.6560745 0 0 1 7.47201,-7.83428 7.6560745,7.6560745 0 0 1 7.83581,7.47042 7.6560745,7.6560745 0 0 1 -7.46881,7.83733"
           sodipodi:open="true"
           sodipodi:end="1.5466218"
           sodipodi:start="1.5474403"
           sodipodi:ry="7.6560745"
           sodipodi:rx="7.6560745"
           sodipodi:cy="784.00079"
           sodipodi:cx="235.4567"
           sodipodi:type="arc"
           id="path4219"
           style="opacity:1;fill:#e41a1c;fill-opacity:1;stroke:none;stroke-width:10;stroke-linecap:round;stroke-linejoin:round;stroke-miterlimit:4;stroke-dasharray:none;stroke-dashoffset:0;stroke-opacity:1" />
        <path
           style="opacity:1;fill:#e41a1c;fill-opacity:1;stroke:none;stroke-width:10;stroke-linecap:round;stroke-linejoin:round;stroke-miterlimit:4;stroke-dasharray:none;stroke-dashoffset:0;stroke-opacity:1"
           id="path4221"
           sodipodi:type="arc"
           sodipodi:cx="281.4567"
           sodipodi:cy="784.00079"
           sodipodi:rx="7.6560745"
           sodipodi:ry="7.6560745"
           sodipodi:start="1.5474403"
           sodipodi:end="1.5466218"
           sodipodi:open="true"
           d="m 281.63549,791.65478 a 7.6560745,7.6560745 0 0 1 -7.83274,-7.47362 7.6560745,7.6560745 0 0 1 7.47201,-7.83428 7.6560745,7.6560745 0 0 1 7.83581,7.47042 7.6560745,7.6560745 0 0 1 -7.46881,7.83733" />
        <path
           d="m 347.63549,791.65478 a 7.6560745,7.6560745 0 0 1 -7.83274,-7.47362 7.6560745,7.6560745 0 0 1 7.47201,-7.83428 7.6560745,7.6560745 0 0 1 7.83581,7.47042 7.6560745,7.6560745 0 0 1 -7.46881,7.83733"
           sodipodi:open="true"
           sodipodi:end="1.5466218"
           sodipodi:start="1.5474403"
           sodipodi:ry="7.6560745"
           sodipodi:rx="7.6560745"
           sodipodi:cy="784.00079"
           sodipodi:cx="347.4567"
           sodipodi:type="arc"
           id="path4223"
           style="opacity:1;fill:#e41a1c;fill-opacity:1;stroke:none;stroke-width:10;stroke-linecap:round;stroke-linejoin:round;stroke-miterlimit:4;stroke-dasharray:none;stroke-dashoffset:0;stroke-opacity:1" />
        <path
           d="m 429.63549,791.65478 a 7.6560745,7.6560745 0 0 1 -7.83274,-7.47362 7.6560745,7.6560745 0 0 1 7.47201,-7.83428 7.6560745,7.6560745 0 0 1 7.83581,7.47042 7.6560745,7.6560745 0 0 1 -7.46881,7.83733"
           sodipodi:open="true"
           sodipodi:end="1.5466218"
           sodipodi:start="1.5474403"
           sodipodi:ry="7.6560745"
           sodipodi:rx="7.6560745"
           sodipodi:cy="784.00079"
           sodipodi:cx="429.4567"
           sodipodi:type="arc"
           id="path4227"
           style="opacity:1;fill:#e41a1c;fill-opacity:1;stroke:none;stroke-width:10;stroke-linecap:round;stroke-linejoin:round;stroke-miterlimit:4;stroke-dasharray:none;stroke-dashoffset:0;stroke-opacity:1" />
      </g>
      <g
         transform="translate(0,-26)"
         id="g4464">
        <path
           style="opacity:1;fill:#e41a1c;fill-opacity:1;stroke:none;stroke-width:10;stroke-linecap:round;stroke-linejoin:round;stroke-miterlimit:4;stroke-dasharray:none;stroke-dashoffset:0;stroke-opacity:1"
           id="path4229"
           sodipodi:type="arc"
           sodipodi:cx="429.4567"
           sodipodi:cy="724.00079"
           sodipodi:rx="7.6560745"
           sodipodi:ry="7.6560745"
           sodipodi:start="1.5474403"
           sodipodi:end="1.5466218"
           sodipodi:open="true"
           d="m 429.63549,731.65478 a 7.6560745,7.6560745 0 0 1 -7.83274,-7.47362 7.6560745,7.6560745 0 0 1 7.47201,-7.83428 7.6560745,7.6560745 0 0 1 7.83581,7.47042 7.6560745,7.6560745 0 0 1 -7.46881,7.83733" />
        <path
           d="m 391.63549,731.65478 a 7.6560745,7.6560745 0 0 1 -7.83274,-7.47362 7.6560745,7.6560745 0 0 1 7.47201,-7.83428 7.6560745,7.6560745 0 0 1 7.83581,7.47042 7.6560745,7.6560745 0 0 1 -7.46881,7.83733"
           sodipodi:open="true"
           sodipodi:end="1.5466218"
           sodipodi:start="1.5474403"
           sodipodi:ry="7.6560745"
           sodipodi:rx="7.6560745"
           sodipodi:cy="724.00079"
           sodipodi:cx="391.4567"
           sodipodi:type="arc"
           id="path4231"
           style="opacity:1;fill:#e41a1c;fill-opacity:1;stroke:none;stroke-width:10;stroke-linecap:round;stroke-linejoin:round;stroke-miterlimit:4;stroke-dasharray:none;stroke-dashoffset:0;stroke-opacity:1" />
        <path
           style="opacity:1;fill:#e41a1c;fill-opacity:1;stroke:none;stroke-width:10;stroke-linecap:round;stroke-linejoin:round;stroke-miterlimit:4;stroke-dasharray:none;stroke-dashoffset:0;stroke-opacity:1"
           id="path4233"
           sodipodi:type="arc"
           sodipodi:cx="283.4567"
           sodipodi:cy="724.00079"
           sodipodi:rx="7.6560745"
           sodipodi:ry="7.6560745"
           sodipodi:start="1.5474403"
           sodipodi:end="1.5466218"
           sodipodi:open="true"
           d="m 283.63549,731.65478 a 7.6560745,7.6560745 0 0 1 -7.83274,-7.47362 7.6560745,7.6560745 0 0 1 7.47201,-7.83428 7.6560745,7.6560745 0 0 1 7.83581,7.47042 7.6560745,7.6560745 0 0 1 -7.46881,7.83733" />
        <path
           d="m 185.63549,731.65478 a 7.6560745,7.6560745 0 0 1 -7.83274,-7.47362 7.6560745,7.6560745 0 0 1 7.47201,-7.83428 7.6560745,7.6560745 0 0 1 7.83581,7.47042 7.6560745,7.6560745 0 0 1 -7.46881,7.83733"
           sodipodi:open="true"
           sodipodi:end="1.5466218"
           sodipodi:start="1.5474403"
           sodipodi:ry="7.6560745"
           sodipodi:rx="7.6560745"
           sodipodi:cy="724.00079"
           sodipodi:cx="185.4567"
           sodipodi:type="arc"
           id="path4235"
           style="opacity:1;fill:#e41a1c;fill-opacity:1;stroke:none;stroke-width:10;stroke-linecap:round;stroke-linejoin:round;stroke-miterlimit:4;stroke-dasharray:none;stroke-dashoffset:0;stroke-opacity:1" />
        <path
           style="opacity:1;fill:#e41a1c;fill-opacity:1;stroke:none;stroke-width:10;stroke-linecap:round;stroke-linejoin:round;stroke-miterlimit:4;stroke-dasharray:none;stroke-dashoffset:0;stroke-opacity:1"
           id="path4237"
           sodipodi:type="arc"
           sodipodi:cx="93.456703"
           sodipodi:cy="724.00079"
           sodipodi:rx="7.6560745"
           sodipodi:ry="7.6560745"
           sodipodi:start="1.5474403"
           sodipodi:end="1.5466218"
           sodipodi:open="true"
           d="m 93.635502,731.65478 a 7.6560745,7.6560745 0 0 1 -7.832748,-7.47362 7.6560745,7.6560745 0 0 1 7.472018,-7.83428 7.6560745,7.6560745 0 0 1 7.835808,7.47042 7.6560745,7.6560745 0 0 1 -7.468813,7.83733" />
        <path
           d="m 83.635502,731.65478 a 7.6560745,7.6560745 0 0 1 -7.832748,-7.47362 7.6560745,7.6560745 0 0 1 7.472018,-7.83428 7.6560745,7.6560745 0 0 1 7.835806,7.47042 7.6560745,7.6560745 0 0 1 -7.468811,7.83733"
           sodipodi:open="true"
           sodipodi:end="1.5466218"
           sodipodi:start="1.5474403"
           sodipodi:ry="7.6560745"
           sodipodi:rx="7.6560745"
           sodipodi:cy="724.00079"
           sodipodi:cx="83.456703"
           sodipodi:type="arc"
           id="path4239"
           style="opacity:1;fill:#e41a1c;fill-opacity:1;stroke:none;stroke-width:10;stroke-linecap:round;stroke-linejoin:round;stroke-miterlimit:4;stroke-dasharray:none;stroke-dashoffset:0;stroke-opacity:1" />
        <path
           style="opacity:1;fill:#e41a1c;fill-opacity:1;stroke:none;stroke-width:10;stroke-linecap:round;stroke-linejoin:round;stroke-miterlimit:4;stroke-dasharray:none;stroke-dashoffset:0;stroke-opacity:1"
           id="path4241"
           sodipodi:type="arc"
           sodipodi:cx="65.456703"
           sodipodi:cy="724.00079"
           sodipodi:rx="7.6560745"
           sodipodi:ry="7.6560745"
           sodipodi:start="1.5474403"
           sodipodi:end="1.5466218"
           sodipodi:open="true"
           d="m 65.635502,731.65478 a 7.6560745,7.6560745 0 0 1 -7.832748,-7.47362 7.6560745,7.6560745 0 0 1 7.472018,-7.83428 7.6560745,7.6560745 0 0 1 7.835806,7.47042 7.6560745,7.6560745 0 0 1 -7.468811,7.83733" />
      </g>
    </g>
  </g>
</svg>
