<?xml version="1.0" encoding="UTF-8" standalone="no"?>
<!-- Created with Inkscape (http://www.inkscape.org/) -->

<svg
   xmlns:dc="http://purl.org/dc/elements/1.1/"
   xmlns:cc="http://creativecommons.org/ns#"
   xmlns:rdf="http://www.w3.org/1999/02/22-rdf-syntax-ns#"
   xmlns:svg="http://www.w3.org/2000/svg"
   xmlns="http://www.w3.org/2000/svg"
   xmlns:sodipodi="http://sodipodi.sourceforge.net/DTD/sodipodi-0.dtd"
   xmlns:inkscape="http://www.inkscape.org/namespaces/inkscape"
   width="512"
   height="512"
   viewBox="0 0 512.00001 512.00001"
   id="svg2"
   version="1.1"
   inkscape:version="0.91 r"
   sodipodi:docname="voltmeter.svg">
  <defs
     id="defs4">
    <inkscape:path-effect
       effect="spiro"
       id="path-effect4138"
       is_visible="true" />
  </defs>
  <sodipodi:namedview
     id="base"
     pagecolor="#ffffff"
     bordercolor="#666666"
     borderopacity="1.0"
     inkscape:pageopacity="0.0"
     inkscape:pageshadow="2"
     inkscape:zoom="0.55415351"
     inkscape:cx="-150.82167"
     inkscape:cy="290.61465"
     inkscape:document-units="px"
     inkscape:current-layer="layer1"
     showgrid="false"
     units="px"
     inkscape:window-width="3127"
     inkscape:window-height="1776"
     inkscape:window-x="73"
     inkscape:window-y="24"
     inkscape:window-maximized="1">
    <inkscape:grid
       type="xygrid"
       id="grid4136" />
  </sodipodi:namedview>
  <metadata
     id="metadata7">
    <rdf:RDF>
      <cc:Work
         rdf:about="">
        <dc:format>image/svg+xml</dc:format>
        <dc:type
           rdf:resource="http://purl.org/dc/dcmitype/StillImage" />
        <dc:title></dc:title>
      </cc:Work>
    </rdf:RDF>
  </metadata>
  <g
     inkscape:label="Layer 1"
     inkscape:groupmode="layer"
     id="layer1"
     transform="translate(0,-540.36216)">
    <rect
       style="fill:#deebf7;fill-opacity:1;stroke:#9ecae1;stroke-width:16;stroke-linecap:round;stroke-miterlimit:4;stroke-dasharray:none;stroke-dashoffset:0;stroke-opacity:1"
       id="rect4134"
       width="448"
       height="320.00003"
       x="32"
       y="636.36218"
       inkscape:export-filename="voltmeter.png"
       inkscape:export-xdpi="22"
       inkscape:export-ydpi="22" />
    <path
       style="fill:#deebf7;fill-opacity:1;stroke:#e41a1c;stroke-width:16;stroke-linecap:round;stroke-miterlimit:4;stroke-dasharray:none;stroke-dashoffset:0;stroke-opacity:1"
       d="m 64,860.36216 c 24.693545,-0.21488 49.01197,-12.37409 64,-32 10.92299,-14.30299 16.77234,-31.72127 22.86107,-48.65687 6.08873,-16.9356 12.86964,-34.17682 25.13893,-47.34313 6.48489,-6.95901 14.42535,-12.61446 23.27764,-16.09564 8.85228,-3.48119 18.61949,-4.74753 28.01208,-3.24392 9.26285,1.48284 18.00112,5.61766 25.46147,11.30471 7.46034,5.68705 13.6807,12.8931 18.82172,20.7397 10.28205,15.6932 16.23836,33.73979 22.857,51.29515 5.80071,15.38587 12.37427,30.85685 23.25585,43.18424 5.44079,6.16369 11.9372,11.46536 19.33537,15.05151 7.39816,3.58614 15.72139,5.41164 23.91096,4.68761 10.62071,-0.93896 20.44596,-6.03923 29.22542,-12.08922 8.77945,-6.04998 16.83019,-13.13681 25.84249,-18.83414 9.61764,-6.08001 20.27148,-10.51629 31.36199,-13.05919"
       id="path4136"
       inkscape:path-effect="#path-effect4138"
       inkscape:original-d="m 64,860.36216 c 0,0 32,0 64,-32 32,-32 16,-80 48,-96 32,-16 19.28972,-19.33956 51.28972,-19.33956 32,0 51.14019,67.33956 67.14019,83.33956 16,16 34.50218,62.92336 66.50218,62.92336 32,0 39.06791,1.07664 55.06791,-30.92336 16,-32 31.36199,-13.05919 31.36199,-13.05919"
       inkscape:connector-curvature="0"
       sodipodi:nodetypes="cssssssc"
       inkscape:export-filename="voltmeter.png"
       inkscape:export-xdpi="22"
       inkscape:export-ydpi="22" />
  </g>
</svg>
