<?xml version="1.0" encoding="UTF-8" standalone="no"?>
<!-- Created with Inkscape (http://www.inkscape.org/) -->

<svg
   xmlns:dc="http://purl.org/dc/elements/1.1/"
   xmlns:cc="http://creativecommons.org/ns#"
   xmlns:rdf="http://www.w3.org/1999/02/22-rdf-syntax-ns#"
   xmlns:svg="http://www.w3.org/2000/svg"
   xmlns="http://www.w3.org/2000/svg"
   xmlns:sodipodi="http://sodipodi.sourceforge.net/DTD/sodipodi-0.dtd"
   xmlns:inkscape="http://www.inkscape.org/namespaces/inkscape"
   width="512"
   height="512"
   id="svg2"
   version="1.1"
   inkscape:version="0.91 r"
   sodipodi:docname="neuron.svg"
   inkscape:export-filename="neuron.png"
   inkscape:export-xdpi="22.5"
   inkscape:export-ydpi="22.5">
  <defs
     id="defs4">
    <inkscape:path-effect
       effect="spiro"
       id="path-effect3778"
       is_visible="true" />
    <filter
       inkscape:label="Fat Oil"
       inkscape:menu="Bevels"
       inkscape:menu-tooltip="Fat oil with some adjustable turbulence"
       height="1.4"
       width="1.4"
       y="-0.2"
       x="-0.2"
       style="color-interpolation-filters:sRGB;"
       id="filter3389">
      <feTurbulence
         numOctaves="3"
         seed="55"
         type="fractalNoise"
         baseFrequency="0.02"
         id="feTurbulence3391" />
      <feGaussianBlur
         stdDeviation="1"
         result="result91"
         id="feGaussianBlur3393" />
      <feDisplacementMap
         scale="15"
         yChannelSelector="G"
         xChannelSelector="R"
         in="SourceGraphic"
         in2="result91"
         id="feDisplacementMap3395" />
      <feGaussianBlur
         stdDeviation="1.5"
         result="result92"
         id="feGaussianBlur3397" />
      <feComposite
         result="fbSourceGraphic"
         k4="-0.3"
         k3="1"
         k2="1"
         operator="arithmetic"
         in2="result92"
         id="feComposite3399" />
      <feGaussianBlur
         stdDeviation="3.5"
         in="fbSourceGraphic"
         result="result0"
         id="feGaussianBlur3401" />
      <feSpecularLighting
         in="result0"
         result="result1"
         lighting-color="rgb(255,255,255)"
         surfaceScale="3"
         specularConstant="1"
         specularExponent="55"
         id="feSpecularLighting3403">
        <feDistantLight
           azimuth="235"
           elevation="65"
           id="feDistantLight3405" />
      </feSpecularLighting>
      <feComposite
         in2="fbSourceGraphic"
         in="result1"
         result="result2"
         operator="in"
         id="feComposite3407" />
      <feComposite
         in="fbSourceGraphic"
         result="result4"
         operator="arithmetic"
         k2="0.4"
         k3="1.7"
         in2="result2"
         id="feComposite3409" />
      <feBlend
         result="fbSourceGraphic"
         mode="normal"
         in2="result2"
         id="feBlend3411" />
    </filter>
    <filter
       style="color-interpolation-filters:sRGB;"
       inkscape:label="Drop Shadow"
       id="filter3605">
      <feFlood
         flood-opacity="0.498039"
         flood-color="rgb(0,120,134)"
         result="flood"
         id="feFlood3607" />
      <feComposite
         in="flood"
         in2="SourceGraphic"
         operator="in"
         result="composite1"
         id="feComposite3609" />
      <feGaussianBlur
         in="composite1"
         stdDeviation="20"
         result="blur"
         id="feGaussianBlur3611" />
      <feOffset
         dx="6"
         dy="6"
         result="offset"
         id="feOffset3613" />
      <feComposite
         in="SourceGraphic"
         in2="offset"
         operator="over"
         result="composite2"
         id="feComposite3615" />
    </filter>
  </defs>
  <sodipodi:namedview
     id="base"
     pagecolor="#ffffff"
     bordercolor="#666666"
     borderopacity="1.0"
     inkscape:pageopacity="0.0"
     inkscape:pageshadow="2"
     inkscape:zoom="1.5683594"
     inkscape:cx="353.36948"
     inkscape:cy="95.789853"
     inkscape:document-units="px"
     inkscape:current-layer="layer1"
     showgrid="false"
     inkscape:snap-global="false"
     inkscape:window-width="3127"
     inkscape:window-height="1776"
     inkscape:window-x="73"
     inkscape:window-y="24"
     inkscape:window-maximized="1">
    <inkscape:grid
       type="xygrid"
       id="grid2985"
       empspacing="4"
       visible="true"
       enabled="true"
       snapvisiblegridlinesonly="true"
       spacingx="16px"
       spacingy="16px" />
  </sodipodi:namedview>
  <metadata
     id="metadata7">
    <rdf:RDF>
      <cc:Work
         rdf:about="">
        <dc:format>image/svg+xml</dc:format>
        <dc:type
           rdf:resource="http://purl.org/dc/dcmitype/StillImage" />
        <dc:title></dc:title>
      </cc:Work>
    </rdf:RDF>
  </metadata>
  <g
     inkscape:label="Layer 1"
     inkscape:groupmode="layer"
     id="layer1"
     transform="translate(0,-540.36218)">
    <path
       style="fill:#3c8ddd;fill-opacity:1;stroke:none;stroke-width:1px;stroke-linecap:butt;stroke-linejoin:miter;stroke-opacity:1;filter:url(#filter3605)"
       d="M 162.36719 573.39258 C 156.25439 585.39352 151.57393 598.22942 149.48242 611.56641 C 148.36777 619.66921 148.99292 627.89325 150.29361 635.93367 C 151.76727 645.77269 154.10134 655.45357 155.84375 665.24414 C 155.8619 673.03986 147.89613 679.67358 140.23438 678.31641 C 126.06194 676.98029 111.79549 675.97577 97.564201 676.93543 C 81.556015 677.48654 65.378754 678.5755 49.505859 675.78516 C 48.526106 675.8197 47.594919 675.0463 46.619141 675.45898 C 47.15967 677.60426 49.636205 678.03591 51.383486 678.8089 C 69.258936 685.98765 88.267706 689.84822 107.31878 692.28266 C 113.42966 693.14123 119.62911 693.45731 125.6662 694.78376 C 131.05448 696.01692 136.46977 698.69216 139.47072 703.5217 C 142.17379 707.73817 142.80924 713.3864 140.44172 717.89711 C 137.23459 725.05654 130.90075 730.34619 123.9805 733.7648 C 108.99895 741.96631 93.003406 748.04864 77.486328 755.12109 C 73.895891 757.4754 71.865202 761.38219 69.371094 764.74219 C 68.962386 765.84458 70.6822 766.64139 71.408203 765.8418 C 85.825138 760.11929 101.1214 757.21655 116.23047 753.98047 C 119.09622 753.72231 121.24236 756.55539 121.3923 759.20119 C 125.02677 775.07398 131.78143 789.962 137.86914 804.99219 C 137.98997 803.52067 137.6173 802.03689 137.58877 800.55583 C 136.34923 785.9176 135.35641 771.26005 134.33398 756.60547 C 136.09359 746.2636 143.73447 736.9278 153.82623 733.77919 C 163.67934 731.87379 173.92814 734.52726 182.54964 739.3722 C 196.21801 747.00357 207.66993 757.87946 218.71461 768.82842 C 236.55053 787.24015 251.16435 808.64073 270.36011 825.75569 C 297.73947 851.19524 321.65251 880.08386 349.03447 905.52148 C 369.50099 925.12231 390.32408 944.35779 411.7533 962.90457 C 419.28376 969.47507 426.68187 976.3117 432.67447 984.35545 C 439.0498 992.59314 443.95555 1001.8123 449.05279 1010.8594 C 450.40472 1013.1907 451.74454 1015.5787 453.44021 1017.6669 C 456.76662 1020.1164 462.28836 1017.3903 462.28633 1013.2301 C 462.83355 1008.3243 460.01931 1003.8302 456.88657 1000.3144 C 453.87503 996.8855 450.86415 993.42756 448.46303 989.53097 C 440.81105 978.30307 434.52542 965.95698 424.76652 956.31995 C 411.11498 942.44825 396.67141 929.39043 382.76983 915.77439 C 374.2183 907.58136 365.66677 899.38834 357.11523 891.19531 C 355.94267 888.17498 359.09899 884.61532 362.23438 885.33398 C 382.24186 885.12202 402.46398 885.00858 422.07422 880.54883 C 430.27799 878.32943 438.48177 876.11003 446.68555 873.89062 C 447.85402 872.14123 445.76114 869.55758 443.80273 870.27539 C 410.13467 871.31917 376.46025 870.0063 342.79688 869.42773 C 332.80916 866.84733 324.28635 860.68542 316.31826 854.37746 C 301.35369 841.84406 289.49643 826.18381 277.84217 810.65745 C 266.88118 796.13812 254.53976 782.62839 240.74351 770.75348 C 232.60469 763.19668 224.14154 755.60037 218.60024 745.83461 C 214.65356 737.10641 215.63202 726.03987 221.9375 718.6543 C 229.78766 711.43079 239.17914 706.15992 248.64606 701.366 C 256.21665 697.61735 263.83369 693.85016 271.95319 691.42293 C 280.30561 688.78053 288.99974 687.53435 297.60156 686.00781 C 299.62551 685.18322 298.7335 681.60593 296.57031 681.77734 C 281.91498 679.78107 267.05754 681.42411 252.59977 684.09777 C 246.03506 685.25112 239.26288 685.92313 232.66278 684.63861 C 226.16865 683.50206 220.06992 680.55364 214.96178 676.41124 C 213.68466 675.3602 212.30241 674.35503 211.2314 673.10773 C 210.04984 670.62755 211.39508 667.92897 212.45079 665.66372 C 214.69047 661.39982 217.8505 657.30071 218.0957 652.30469 C 219.03511 644.94995 216.35049 637.69367 212.75256 631.40078 C 209.00587 623.82021 204.80052 616.16642 203.84961 607.62305 C 203.86441 603.60481 204.85733 599.68749 205.40039 595.72656 C 204.79947 593.8394 201.75563 594.34827 201.42152 596.16986 C 195.49895 606.66186 193.81054 619.3938 196.61749 631.09641 C 197.89503 637.49113 198.74069 643.96202 199.7793 650.39648 C 197.86068 658.3677 188.66922 663.82605 180.78516 661.31641 C 174.84337 658.19701 170.98149 652.25373 168.58203 646.16016 C 165.77135 638.81295 164.86287 630.94175 163.65065 623.22059 C 161.38289 606.80776 161.28328 590.14672 162.64062 573.65039 C 162.64708 573.51462 162.52682 573.32396 162.36719 573.39258 z "
       id="path3776"
       inkscape:connector-curvature="0" />
  </g>
</svg>
